<?xml version="1.0" encoding="utf-8"?>
<!-- Generator: Adobe Illustrator 22.0.1, SVG Export Plug-In . SVG Version: 6.00 Build 0)  -->
<svg version="1.1" id="Layer_2" xmlns="http://www.w3.org/2000/svg" xmlns:xlink="http://www.w3.org/1999/xlink" x="0px" y="0px"
	 viewBox="0 0 74.5 88.7" style="enable-background:new 0 0 74.5 88.7;" xml:space="preserve">
<style type="text/css">
	.st0{fill:none;stroke:#000000;stroke-width:2;stroke-miterlimit:10;}
	.st1{stroke:#000000;stroke-width:2;stroke-miterlimit:10;}
	.st2{stroke:#000000;stroke-width:3;stroke-miterlimit:10;}
</style>
<path class="st0" d="M39.2,79.5c0.1,0,0,0,0.1,0c0.7,0,2.5-0.5,7.3-3.9c0,0,1.5-1.2,5.6-0.7c0,0,4.3,0.3,7.6-1.8
	c0,0,4.9-1.9,4.9-2.8c0,0-8.8-10.8-8.5-19.2c0,0-0.6-7.1,0.3-10.8c0.2-0.7,0.2-1.5,0.2-2.2c-0.3-6.7-1.3-11.4-3.2-14.1
	c-0.4-0.6-1-1.4-1.4-2c-1.7-2.4-6-7.3-10.8-8c0,0-5.8-1.9-13.2,1.1c-2.3,1-4.4,2.5-5.9,4.4c-2.3,2.9-5.5,7.8-6.3,13.9
	c-0.1,0.7-0.2,1.3-0.4,1.9c-0.4,1.6-1.2,4.9-0.6,7.7c0.1,0.7,0.2,1.4,0.2,2.2c0,2.5,0.1,7.7,0.5,8.9c0,0,1,5.4,0.9,8.3
	c0,1.2,0.1,2.3,0.3,3.5c0.7,3.8,2.2,11.2,3.5,12.6c0,0,0.6,0.8,5.8-1.4c0,0,3.3-0.6,6.5,1c0.3,0.2,0.6,0.3,1,0.4
	C35,78.7,38.1,79.6,39.2,79.5z"/>
<circle class="st1" cx="27" cy="32.3" r="2.8"/>
<ellipse class="st2" cx="34.7" cy="40.4" rx="2.1" ry="2.6"/>
<circle class="st1" cx="43.9" cy="33.2" r="2.8"/>
</svg>
